<svg width="137" height="128" viewBox="0 0 137 128" fill="none" xmlns="http://www.w3.org/2000/svg">
<path d="M58.372 127.663C41.6988 127.593 26.885 122.754 15.1869 110.518C3.54965 98.348 -0.46285 83.6504 1.44714 67.2378C2.65292 56.8527 6.28545 47.2699 11.7925 38.3541C12.6842 36.9099 13.3073 36.9149 14.6296 37.7724C20.6129 41.6386 26.6469 45.4346 32.7163 49.1654C33.8866 49.8875 34.0335 50.3338 33.3749 51.5975C28.8254 60.3328 26.5101 69.4993 28.947 79.3028C31.9209 91.2674 42.0433 100.203 54.3494 101.999C79.848 105.719 104.987 88.5496 110.388 63.5772C111.953 56.3362 111.614 49.1504 108.077 42.4058C107.449 41.2073 107.611 40.5504 108.559 39.6478C114.279 34.207 119.958 28.7362 125.581 23.2001C126.711 22.0869 127.137 22.3226 127.957 23.506C135.299 34.1368 137.832 45.906 136.768 58.6078C133.88 92.9924 103.609 119.274 74.9236 125.853C69.4874 127.096 63.9753 127.798 58.372 127.663Z" fill="#FDFDFC"/>
<path d="M41.02 41.1171C40.4728 40.8162 39.951 40.5655 39.4647 40.2596C33.451 36.4686 27.4778 32.6124 21.4084 28.9117C19.8936 27.989 20.1368 27.4675 21.1804 26.4094C27.3106 20.1663 34.14 14.8208 41.6786 10.3378C43.0769 9.50543 43.619 9.78123 44.1408 11.2304C46.4916 17.7794 48.893 24.3134 51.3654 30.8172C51.8264 32.0307 51.72 32.6575 50.5649 33.3897C47.5201 35.3253 44.7235 37.6019 42.1549 40.1342C41.8002 40.4802 41.405 40.7811 41.02 41.1171Z" fill="#FAFAFA"/>
<path d="M74.8729 0.24359C80.7701 0.0430082 80.765 0.0430086 79.7872 4.34047C78.3838 10.4933 76.9551 16.6361 75.6176 22.799C75.2529 24.4738 74.5791 25.3313 72.6792 25.3263C69.6344 25.3163 66.6807 26.1186 63.8132 27.0463C62.3744 27.5126 61.9184 27.1365 61.4624 25.8729C59.1015 19.3189 56.7254 12.7699 54.2227 6.26605C53.6958 4.89708 54.096 4.58116 55.2917 4.17499C62.1666 1.84323 69.229 0.50936 74.8729 0.24359Z" fill="#FAFAFA"/>
<path d="M93.2127 1.30666C95.9383 1.92846 98.8413 2.69067 101.694 3.68355C106.552 5.37846 111.031 7.75535 115.266 10.6337C116.462 11.446 116.928 11.8873 115.469 13.0708C109.298 18.0953 103.224 23.2402 97.1644 28.3902C96.293 29.1323 95.6749 29.4432 94.5654 28.7813C92.5541 27.5828 90.3249 26.8156 88.04 26.279C86.9001 26.0133 86.3985 25.6823 86.743 24.2833C88.5264 17.0373 90.178 9.76116 91.8397 2.48507C91.9917 1.78304 92.0322 1.14118 93.2127 1.30666Z" fill="#FAFAFA"/>
<path d="M118.732 20.3218C107.657 31.078 96.5771 41.8341 85.5021 52.5903C84.2356 53.8189 82.9741 55.0474 81.6923 56.2559C79.4074 58.4122 77.4366 60.3177 77.467 64.1388C77.5126 69.2386 71.5242 73.867 66.3364 73.8469C61.2549 73.8269 57.9365 69.5645 58.9902 64.4196C60.2669 58.1815 67.1419 54.0145 73.2417 55.9551C74.5488 56.3713 75.101 55.7545 75.8306 55.1427C88.8864 44.1809 101.937 33.2091 114.993 22.2474C116.016 21.3849 117.085 20.5775 118.134 19.7451C118.337 19.9407 118.534 20.1312 118.732 20.3218Z" fill="#EBAF20"/>
<path d="M118.732 20.3218C118.534 20.1312 118.336 19.9357 118.134 19.7451C118.955 18.677 120.018 17.8847 121.158 17.1927C121.315 17.3281 121.478 17.4635 121.635 17.5989C120.667 18.5065 119.699 19.4142 118.732 20.3218Z" fill="#CE9A29"/>
<path d="M121.158 17.1927C121.437 16.8969 121.665 16.2149 122.151 16.7063C122.481 17.0373 121.913 17.3432 121.635 17.5939C121.478 17.4635 121.321 17.3281 121.158 17.1927Z" fill="#CE9A29"/>
</svg>
