<svg xmlns="http://www.w3.org/2000/svg" viewBox="0 0 24 24"><path d="M19.22.5V6H13.8l1.28-1.29A7.58,7.58,0,0,0,7,5.75,7.76,7.76,0,0,0,5.57,16.07L3.32,18.32a10.9,10.9,0,0,1,14.16-16L19.15.56s0,0,0-.06Z"/><path d="M6,23.51l-.58-5.43,5.44-.58L9.6,19.09a7.61,7.61,0,0,0,7.33-1.43,7.79,7.79,0,0,0,1.7-9.76l2.44-2.06a10.26,10.26,0,0,1,1.51,3.62,10.69,10.69,0,0,1-3.15,10.21,10.49,10.49,0,0,1-6,2.91,10.45,10.45,0,0,1-5.6-.76.35.35,0,0,0-.5.14c-.37.49-.77,1-1.16,1.44Z"/><path d="M7,12.42V11h.75c.2,0,.44.06.57,0s.14-.34.22-.51.25-.56.38-.84L8,8.71l1-1,.89.93c.33-.15.63-.29.93-.41s.39-.06.46-.18,0-.34,0-.52,0-.51,0-.77c0,0,0,0,0-.05h1.39c0,.4,0,.79,0,1.17,0,.16,0,.21.2.26a10.19,10.19,0,0,1,1,.43.21.21,0,0,0,.29,0c.27-.29.55-.57.82-.84l1,1c-.27.27-.54.55-.83.82a.21.21,0,0,0,0,.29,9.69,9.69,0,0,1,.44,1.05c0,.13.09.18.23.17h1.2v1.41H15.91c-.15,0-.2.05-.25.2a10.19,10.19,0,0,1-.43,1c-.06.12-.07.19,0,.28.28.27.56.56.83.83l-1,1c-.26-.26-.54-.53-.8-.81A.23.23,0,0,0,14,14.9a10.36,10.36,0,0,1-1,.43c-.13,0-.18.09-.17.23v1.2H11.35c0-.39,0-.77,0-1.15,0-.17,0-.24-.22-.29-.39-.13-.77-.3-1.17-.46l-.91.93L8,14.74l.92-.89c-.17-.46-.33-.89-.5-1.32a.24.24,0,0,0-.18-.1Zm5.14.82a1.52,1.52,0,0,0,1.41-1.75A1.54,1.54,0,0,0,12,10.19a1.53,1.53,0,1,0,.18,3.05Z"/></svg>