<svg xmlns="http://www.w3.org/2000/svg" viewBox="0 0 24 24"><path d="M.57,14.07a1,1,0,0,1,.87-.41c1.27,0,2.53,0,3.8,0a.75.75,0,0,1,.82.52.29.29,0,0,0,.17.1,6.67,6.67,0,0,1,4.09,1.77.46.46,0,0,0,.31.1h3.82a2.38,2.38,0,0,1,2.31,1.43s0,.09,0,.13a2.82,2.82,0,0,0,.09.27l1,.07c1.14.08,2.29.18,3.43.23a2,2,0,0,1,1.78,2.76,1.84,1.84,0,0,1-1.65,1.18l-5.79.4-6.38.44L6,23.31a.72.72,0,0,0-.19,0H1.06L.57,23ZM6.1,21.93l3.33-.23,3.41-.25,3.45-.24L19.86,21l1.36-.1a.65.65,0,0,0,.57-.28.55.55,0,0,0-.47-.81l-.91-.06-3.48-.25a.27.27,0,0,0-.29.16,2.2,2.2,0,0,1-2,1.16H10.47a.71.71,0,1,1,0-1.41h4.15a.89.89,0,0,0,.88-.73.91.91,0,0,0-.63-1,1.61,1.61,0,0,0-.44-.05c-1.38,0-2.75,0-4.13,0a1,1,0,0,1-.78-.32,5.08,5.08,0,0,0-1.72-1.18,4.91,4.91,0,0,0-1.71-.39Zm-1.43,0V15.1H2v6.82Z"/><path d="M.57,23l.49.4H.57Z" style="fill:#fff"/><path d="M17.83,2.74l.4-.41a1.35,1.35,0,0,1,1.94,0l1.12,1.07a1.35,1.35,0,0,1,0,2c-.12.13-.25.24-.38.36l0,0h.54a1.35,1.35,0,0,1,1.44,1.45V8.8a1.34,1.34,0,0,1-1.29,1.35h-.75l.36.37a1.35,1.35,0,0,1,0,2.11l-1,1a1.33,1.33,0,0,1-1.95,0,2.87,2.87,0,0,0-.45-.39v.56a1.36,1.36,0,0,1-1.42,1.42c-.6,0-1.21,0-1.81,0a1.28,1.28,0,0,1-1.09-1.28v-.72l-.47.46a1.27,1.27,0,0,1-1.32.34,1.72,1.72,0,0,1-.6-.35c-.38-.35-.74-.72-1.1-1.09a1.34,1.34,0,0,1,0-2l.36-.37s0,0,0-.07H9.8A1.3,1.3,0,0,1,8.43,8.88,16.3,16.3,0,0,1,8.44,7a1.27,1.27,0,0,1,1.2-1.18c.23,0,.47,0,.7,0l0-.08c-.13-.12-.28-.24-.4-.37a1.33,1.33,0,0,1,0-2l1.05-1a1.34,1.34,0,0,1,2,0,2.25,2.25,0,0,0,.43.37c0-.2,0-.4,0-.6a1.34,1.34,0,0,1,1-1.33.71.71,0,0,1,.2,0c.65,0,1.31,0,2,0A1.27,1.27,0,0,1,17.76,2c0,.23,0,.45,0,.68Zm1.34,9.88,1.07-1.07c-.16-.15-.34-.31-.51-.48a1.4,1.4,0,0,1-.28-1.54,1.32,1.32,0,0,1,1.24-.76h.73V7.29h-.58a2.24,2.24,0,0,1-.52,0A1.35,1.35,0,0,1,19.64,5c.19-.22.39-.43.57-.62L19.14,3.36l-.43.47a1.38,1.38,0,0,1-1.58.33,1.33,1.33,0,0,1-.77-1.3V2.2H14.89v.69a1.28,1.28,0,0,1-.77,1.28,1.33,1.33,0,0,1-1.58-.3c-.17-.16-.33-.33-.45-.46L11,4.46c.17.16.36.33.53.52a1.37,1.37,0,0,1,.06,1.8,1.35,1.35,0,0,1-1,.48H9.83V8.71c.19,0,.38,0,.57,0a2.29,2.29,0,0,1,.52,0,1.42,1.42,0,0,1,.61,2.33l-.47.47,1,1.06c.16-.17.33-.37.52-.54a1.34,1.34,0,0,1,2.19.52,2,2,0,0,1,.07.56c0,.21,0,.42,0,.64h1.48v-.72a1.24,1.24,0,0,1,.76-1.23,1.34,1.34,0,0,1,1.57.28Z"/><path d="M15.61,11.07a2.9,2.9,0,1,1,2.9-2.88A2.88,2.88,0,0,1,15.61,11.07Zm0-1.42a1.48,1.48,0,1,0,0-2.95,1.48,1.48,0,0,0,0,3Z"/></svg>