<svg xmlns="http://www.w3.org/2000/svg" viewBox="0 0 22.6 22.6"><path d="M11.18.71h1.5l.19.05a11.39,11.39,0,0,1,9.75,7.11,10,10,0,0,1,.64,2.26l-.72-.08-3.36-.42-3.35-.42c-.75-.1-1.49-.21-2.25-.28a2,2,0,0,0-2.13,2c0,.92,0,1.84,0,2.75a2.09,2.09,0,0,0,1.25,2l8.9,4.45.21.11c-.06.17-.11.32-.17.47a3.78,3.78,0,0,1-4.44,2.44,13.72,13.72,0,0,1-1.85-.69L2.09,17.05A2.09,2.09,0,0,1,1,16a5.62,5.62,0,0,1-.19-.53V11.39a.7.7,0,0,0,0-.14,10.24,10.24,0,0,1,.57-2.69A12.2,12.2,0,0,1,6.42,2.19,9.22,9.22,0,0,1,10.23.84Zm-2.43,12a2.65,2.65,0,1,0-2.64,2.64A2.65,2.65,0,0,0,8.75,12.72Z" transform="translate(-0.77 -0.71)"/><path d="M11.18.71l-.95.13A9.22,9.22,0,0,0,6.42,2.19a12.2,12.2,0,0,0-5,6.37A10.24,10.24,0,0,0,.8,11.25a.7.7,0,0,1,0,.14V.71Z" transform="translate(-0.77 -0.71)" style="fill:#fff"/><path d="M15.43,10.48l7.93,1v.23c0,2.23,0,4.46,0,6.69a.71.71,0,0,1-1.09.67c-2.23-1.13-4.46-2.24-6.7-3.36-.09,0-.17-.08-.17-.21,0-1.64,0-3.27,0-4.9C15.42,10.56,15.43,10.53,15.43,10.48Z" transform="translate(-0.77 -0.71)"/><path d="M14.08,15A8.11,8.11,0,0,1,13,14.38a.67.67,0,0,1-.25-.48c0-1,0-2,0-3a.63.63,0,0,1,.64-.63c.22,0,.44,0,.67.06Z" transform="translate(-0.77 -0.71)"/><path d="M6.11,11.39A1.33,1.33,0,1,1,4.78,12.7,1.33,1.33,0,0,1,6.11,11.39Z" transform="translate(-0.77 -0.71)"/></svg>