<svg xmlns="http://www.w3.org/2000/svg" viewBox="0 0 24 24"><path d="M23.23,15.15c-.08.29-.14.58-.24.86a3.72,3.72,0,0,1-7.13-.54A3.82,3.82,0,0,1,16,13.6a1.24,1.24,0,0,1,0-.16,1.37,1.37,0,0,0-.68.72,2.91,2.91,0,0,0-.11,1.6c0,.34.14.67.22,1-.2,0-.41.05-.62.06-1.77,0-3.54,0-5.32.09a1.91,1.91,0,0,1-1.58-.55.77.77,0,0,0-.15-.1c-.28.35-.52.73-.82,1a3.71,3.71,0,1,1,.84-4c.07.17.14.23.32.16s.3-.06.51-.11a3.13,3.13,0,0,0-.16-.49c-.23-.42-.47-.83-.72-1.24a.69.69,0,0,0-.25-.23c-.59-.3-1.18-.58-1.78-.87a.51.51,0,0,0-.21-.06,2.66,2.66,0,0,1-1.64-.62c-.52-.39-1-.85-1.49-1.27A1,1,0,0,0,2,8.44c-.15,0-.31,0-.46-.06a1.05,1.05,0,0,1-.25-.18L1.54,8a.38.38,0,0,1,.11,0l-.17-.23,0,0a13,13,0,0,1,3,.17,1.33,1.33,0,0,1,.72.42A3.46,3.46,0,0,0,8.6,9.5.74.74,0,0,0,9,9.3a5.34,5.34,0,0,1,2.31-1.4,4.51,4.51,0,0,1,3.17.31l.44.22c-.15-.3,0-.39.23-.47s.54-.22.83-.34l.67,1.53c.14.32.4.36.65.11a.64.64,0,0,1,.2-.11,1.55,1.55,0,0,0,.23-.06c.28-.12.36-.36.12-.55A4.2,4.2,0,0,0,16.91,8a14.36,14.36,0,0,0-1.54-.59.65.65,0,0,1-.44-.62c0-.25.19-.37.37-.46a1.55,1.55,0,0,1,1.76.06c.08.06.18.1.28.16l.33-.7a.91.91,0,0,1,.44,1,.46.46,0,0,0,.12.45C18.82,8,19.4,8.78,20,9.54c.37.5.32.64-.26.88l-.14.06.29.2L19.5,11c.35.06.68.1,1,.18a3.68,3.68,0,0,1,2.68,3,.61.61,0,0,0,.05.12Zm-3.71-3a2.57,2.57,0,1,0,2.56,2.59A2.56,2.56,0,0,0,19.52,12.14ZM6.84,15.21l-2.65.11-.18-1,2.7-.58a2.55,2.55,0,0,0-2.92-1.58,2.58,2.58,0,0,0,.35,5.09A2.57,2.57,0,0,0,6.84,15.21Zm2.22.47c-.09-.17-.14-.31-.21-.43s-.11-.12-.17-.12l-.64,0-.1.52Z"/></svg>